<?xml version="1.0" standalone="no"?>
<!DOCTYPE svg PUBLIC "-//W3C//DTD SVG 20010904//EN"
        "http://www.w3.org/TR/2001/REC-SVG-20010904/DTD/svg10.dtd">
<svg version="1.0" xmlns="http://www.w3.org/2000/svg"
     width="2160.000000pt" height="2160.000000pt" viewBox="0 0 2160.000000 2160.000000"
     preserveAspectRatio="xMidYMid meet">
    <metadata>
        Created by potrace 1.14, written by Peter Selinger 2001-2017
    </metadata>
    <g transform="translate(0.000000,2160.000000) scale(0.100000,-0.100000)"
       fill="#000000" stroke="none">
        <path d="M12350 20186 c-257 -46 -394 -126 -468 -272 -42 -84 -51 -123 -63
-264 -14 -178 -27 -189 -177 -151 -368 94 -723 17 -928 -201 -67 -71 -101
-126 -135 -219 -92 -252 -41 -542 128 -728 70 -78 149 -133 290 -205 111 -57
163 -100 163 -136 0 -27 -10 -31 -120 -41 -249 -23 -438 -138 -529 -320 -138
-276 -19 -537 285 -624 215 -63 273 -165 290 -515 6 -116 5 -140 -10 -168 -21
-42 -65 -68 -136 -83 -84 -17 -217 -66 -300 -111 -198 -105 -322 -240 -406
-442 -39 -94 -67 -128 -187 -230 -116 -97 -198 -252 -232 -439 -11 -58 -18
-203 -25 -487 -5 -223 -12 -452 -15 -510 -22 -395 -136 -610 -389 -734 -161
-80 -355 -115 -851 -155 -807 -65 -1725 -96 -2570 -87 -724 7 -1265 30 -1560
66 -307 38 -522 170 -1045 645 -451 410 -613 539 -853 680 -241 140 -495 232
-782 282 -156 26 -472 24 -638 -6 -338 -59 -716 -180 -795 -254 -31 -28 -58
-82 -73 -143 -7 -27 -25 -79 -41 -116 -31 -73 -35 -131 -15 -181 8 -18 49 -75
91 -127 118 -146 166 -268 152 -388 -8 -64 -27 -105 -100 -207 -61 -84 -81
-139 -72 -197 4 -21 32 -88 63 -147 53 -102 57 -114 61 -193 5 -100 -11 -165
-66 -272 -34 -65 -37 -78 -37 -156 0 -80 3 -91 47 -185 57 -123 68 -162 68
-245 -1 -81 -11 -130 -55 -248 -28 -72 -35 -107 -35 -161 0 -38 -7 -105 -15
-148 -23 -119 -20 -179 12 -244 57 -114 181 -199 368 -251 77 -22 95 -23 455
-22 321 0 420 4 685 28 415 36 809 52 944 39 142 -14 145 -18 147 -166 1 -71
9 -148 23 -211 29 -134 27 -179 -10 -278 -27 -73 -30 -92 -26 -158 3 -53 12
-93 31 -135 43 -95 47 -138 30 -282 -22 -179 -16 -299 21 -381 83 -185 307
-238 453 -107 95 85 138 222 129 403 -7 116 1 145 44 168 33 17 109 18 179 3
39 -8 76 -30 157 -90 161 -121 296 -179 531 -226 102 -20 381 -23 857 -9 329
9 767 -4 935 -29 216 -33 412 -95 555 -178 175 -101 284 -213 405 -418 139
-235 253 -367 424 -493 285 -210 632 -347 1116 -441 515 -99 1163 -169 1822
-196 333 -14 2695 -6 3173 10 1004 34 1537 67 2290 142 677 67 1324 160 1700
244 823 184 1272 352 1679 626 435 292 680 725 746 1314 25 223 31 266 51 327
57 175 153 274 474 488 311 207 433 300 540 411 197 205 265 370 265 642 0
335 -90 575 -292 777 -361 362 -946 500 -2413 570 -471 23 -783 52 -1070 100
-275 46 -407 92 -606 207 -383 222 -613 272 -1348 293 -709 21 -935 49 -1163
145 -226 95 -386 249 -488 469 -43 90 -80 208 -170 531 -68 248 -112 347 -193
443 -84 100 -209 182 -346 227 -77 25 -123 70 -124 121 -1 22 8 57 19 79 11
22 36 69 54 105 27 52 34 77 34 125 1 92 -30 146 -113 200 -128 83 -126 74
-101 398 24 322 34 391 65 442 13 22 80 93 149 158 179 169 241 276 268 469
20 139 -20 338 -92 463 -128 222 -361 373 -615 400 -80 8 -113 22 -130 56 -22
41 -19 69 15 136 24 48 58 86 157 180 210 196 253 252 298 386 36 107 45 261
21 357 -43 172 -144 295 -306 373 -143 69 -227 88 -405 93 -98 2 -176 -1 -225
-10z m140 -212 c0 -9 -8 -28 -19 -42 -10 -15 -32 -54 -49 -87 -103 -207 -102
-392 6 -533 30 -39 142 -115 240 -161 39 -19 72 -40 72 -46 0 -6 -14 -24 -31
-41 -89 -84 -139 -252 -139 -469 0 -60 -5 -110 -13 -124 -10 -20 -256 -171
-278 -171 -8 0 -12 25 -34 210 -9 75 -40 235 -70 360 -96 402 -132 659 -117
836 9 109 26 152 72 185 25 19 295 97 338 98 14 1 22 -5 22 -15z m253 1 c15
-6 12 -14 -23 -57 -104 -131 -136 -299 -81 -424 40 -89 132 -162 241 -190 27
-7 45 -17 45 -26 0 -22 -102 -108 -129 -108 -45 0 -204 89 -260 145 -145 144
-151 322 -21 550 70 121 78 128 150 122 33 -3 68 -9 78 -12z m-1221 -662 c60
-27 141 -102 188 -175 115 -176 86 -416 -68 -567 -148 -144 -318 -181 -585
-126 -117 24 -158 42 -181 78 -16 25 -4 28 55 16 85 -18 258 -6 356 25 90 29
188 89 225 139 118 155 108 359 -25 497 -44 46 -151 120 -173 120 -7 0 -16 5
-20 11 -13 21 174 6 228 -18z m241 -59 c105 -53 193 -146 251 -266 70 -144
104 -281 138 -553 24 -187 4 -2183 -22 -2209 -6 -6 -90 -12 -215 -14 l-204 -4
-5 23 c-3 13 -7 170 -10 349 -5 338 -19 539 -61 870 -43 340 -116 548 -249
706 -21 25 -84 79 -139 120 -56 41 -97 74 -92 75 6 0 55 0 110 -1 179 -1 318
54 440 174 108 106 155 212 155 351 0 127 -49 246 -141 346 -75 81 -66 88 44
33z m1315 -872 c190 -80 298 -209 337 -401 30 -147 1 -254 -93 -347 -104 -102
-220 -153 -348 -154 -146 0 -278 60 -378 171 -95 105 -140 219 -140 349 0 118
27 185 108 266 145 145 340 189 514 116z m-647 -153 c-63 -115 -76 -220 -40
-349 35 -128 84 -216 168 -301 146 -147 334 -209 501 -164 30 8 63 15 73 15
29 0 19 -19 -22 -39 -76 -39 -129 -125 -145 -236 -4 -22 -22 -233 -41 -469
-24 -296 -39 -434 -47 -443 -17 -16 -595 -30 -617 -15 -13 9 -13 139 -3 962
11 835 14 956 28 979 14 23 163 124 172 116 2 -2 -10 -27 -27 -56z m-1171
-503 c148 -75 252 -278 304 -591 25 -149 37 -325 43 -625 5 -237 3 -287 -8
-296 -18 -14 -235 -28 -243 -16 -3 5 -8 95 -11 198 -11 344 -33 481 -105 630
-46 95 -132 183 -202 207 -51 17 -51 23 -12 122 24 61 28 84 28 175 0 71 -5
122 -17 159 -9 29 -14 58 -11 63 4 6 42 9 93 6 69 -4 97 -10 141 -32z m-282
-46 c19 -54 22 -79 18 -145 -6 -97 -39 -209 -71 -241 -29 -29 -83 -32 -115 -6
l-22 18 26 52 c42 83 58 171 50 274 l-7 88 34 15 c52 22 62 16 87 -55z m1900
-1651 c38 -13 39 -18 48 -210 9 -207 12 -202 -112 -197 -71 2 -97 7 -104 18
-15 23 -12 330 3 360 19 37 101 52 165 29z m-405 -28 c8 -8 12 -66 12 -189 l0
-177 -110 0 -110 0 -7 40 c-12 72 -9 320 5 334 15 16 192 10 210 -8z m-550
-19 c15 -13 17 -35 17 -171 0 -86 -5 -163 -10 -171 -7 -11 -33 -16 -107 -18
-54 -1 -105 2 -113 7 -21 14 -15 334 7 374 8 14 186 -4 206 -21z m-330 -33 c8
-34 0 -279 -10 -305 -9 -23 -42 -16 -49 10 -11 47 0 302 15 320 20 23 34 15
44 -25z m561 -31 c4 -35 7 -112 9 -173 2 -107 1 -110 -20 -113 -23 -3 -23 -3
-23 135 0 143 7 213 21 213 4 0 10 -28 13 -62z m-791 -20 c8 -89 -3 -256 -18
-268 -21 -17 -44 15 -39 53 5 40 24 246 24 264 0 7 6 13 14 13 9 0 15 -19 19
-62z m1202 -388 c543 -14 711 -34 849 -100 68 -32 176 -128 176 -156 0 -11
-19 -14 -82 -14 -146 -1 -297 -39 -351 -88 -68 -62 -119 -324 -138 -722 -19
-382 1 -683 57 -878 104 -359 261 -500 604 -542 103 -12 1223 -13 1675 0 444
12 643 48 725 130 54 54 65 112 56 304 l-7 149 103 -6 c192 -11 443 -74 590
-148 32 -16 88 -50 125 -75 139 -93 323 -166 515 -203 235 -45 837 -114 1118
-127 80 -3 151 -10 158 -14 18 -9 -155 -80 -263 -108 -191 -51 -540 -98 -915
-124 -284 -20 -1383 -16 -1970 6 -489 19 -804 18 -1255 -4 -607 -30 -950 -130
-1165 -340 -92 -90 -138 -157 -215 -310 -31 -63 -94 -180 -138 -260 -134 -237
-252 -337 -459 -389 -83 -21 -299 -54 -468 -72 -283 -29 -1977 -17 -2248 16
-370 45 -579 127 -760 300 -206 196 -296 412 -362 870 -34 237 -37 295 -16
295 42 0 497 54 592 70 397 68 678 248 818 525 115 227 146 453 146 1080 0
193 5 389 10 437 30 259 147 362 485 428 345 66 1105 93 2010 70z m1083 -377
c6 -16 39 -136 73 -268 76 -299 108 -394 172 -519 150 -293 387 -495 699 -595
227 -72 493 -104 1045 -126 316 -13 391 -19 403 -31 12 -12 15 -48 15 -192 0
-246 -2 -248 -227 -282 -209 -31 -353 -39 -968 -50 -1112 -21 -1375 11 -1546
186 -83 86 -140 219 -176 414 -25 137 -36 584 -19 821 13 193 48 491 62 535
11 37 53 78 94 95 47 18 182 37 276 38 86 1 87 1 97 -26z m-12067 -603 c248
-20 454 -77 678 -185 268 -130 448 -269 961 -745 443 -411 623 -541 870 -628
121 -42 220 -60 472 -85 170 -17 223 -25 229 -37 4 -8 12 -145 17 -305 11
-316 20 -371 83 -536 39 -100 90 -157 171 -187 72 -27 320 -77 478 -97 409
-51 992 -8 1187 86 173 84 249 308 260 767 4 176 9 226 20 238 10 9 37 14 86
14 40 0 225 7 412 15 187 8 375 15 419 15 l78 0 -7 -152 c-22 -480 104 -864
377 -1153 44 -47 78 -91 75 -97 -2 -8 -74 -27 -168 -47 -388 -79 -637 -198
-844 -404 -195 -195 -312 -432 -366 -745 -34 -203 -24 -534 27 -813 25 -138
24 -139 -73 -70 -230 165 -531 267 -901 306 -167 18 -584 20 -807 3 -253 -18
-658 -16 -793 5 -250 39 -400 102 -531 223 -117 107 -148 120 -286 117 -132
-3 -166 11 -186 76 -26 86 14 149 119 189 84 32 102 57 102 141 -1 218 -110
416 -305 550 -139 97 -290 149 -495 171 -153 17 -570 8 -1050 -24 -587 -38
-918 -50 -1031 -36 -198 23 -274 47 -335 105 -37 36 -40 43 -21 68 15 21 216
40 657 62 482 24 684 57 799 129 55 35 118 111 140 170 79 211 115 627 92
1066 -16 311 -58 871 -76 1011 -27 209 -85 350 -190 455 -101 101 -204 149
-399 186 -95 17 -165 21 -495 25 -212 3 -378 9 -370 13 24 14 315 87 438 110
190 37 311 44 482 30z m-511 -374 c194 -9 434 -57 534 -108 22 -11 66 -45 97
-74 100 -96 139 -218 171 -534 9 -97 13 -314 13 -775 0 -940 -6 -964 -248
-1044 -226 -75 -434 -109 -710 -118 -195 -6 -405 7 -438 28 -11 7 -5 34 35
151 80 229 77 337 -15 522 -68 137 -67 165 6 311 41 81 57 128 64 178 19 133
-17 257 -111 386 -26 36 -48 71 -48 78 0 7 21 29 46 50 105 88 154 208 154
380 0 165 -55 295 -177 424 -40 42 -73 81 -73 87 0 14 48 26 160 42 89 13 344
28 395 23 17 -1 82 -4 145 -7z m944 -513 c2 -10 10 -58 16 -107 12 -83 11 -90
-6 -103 -23 -16 -58 -17 -72 0 -12 14 -27 201 -18 216 12 19 74 13 80 -6z
m17611 -683 c313 -29 712 -100 890 -157 519 -168 726 -414 726 -868 0 -146
-21 -239 -82 -356 -79 -152 -196 -255 -524 -463 -325 -207 -443 -300 -540
-427 -108 -140 -154 -264 -190 -517 -35 -243 -60 -367 -106 -507 -81 -246
-176 -403 -354 -581 -142 -142 -258 -224 -456 -318 -164 -78 -387 -169 -398
-162 -4 3 -11 200 -15 438 -11 716 -29 1045 -77 1392 -22 162 -33 198 -79 256
-135 171 -620 286 -1355 321 -604 29 -937 -21 -1092 -164 -130 -120 -177 -306
-215 -857 -17 -245 -16 -1376 2 -1663 7 -118 9 -212 4 -217 -9 -9 -390 -41
-1024 -85 -374 -26 -469 -30 -471 -17 0 4 -2 153 -4 332 -3 284 -6 339 -25
435 -38 194 -39 195 -435 202 -159 3 -728 0 -1264 -6 -1086 -14 -1367 -27
-1470 -72 -66 -28 -127 -95 -174 -191 -77 -158 -113 -308 -128 -543 -13 -204
-14 -213 -36 -217 -22 -4 -731 36 -995 56 -517 40 -969 117 -1414 240 -240 67
-393 137 -552 255 -153 113 -227 204 -407 499 l-87 143 16 213 c46 608 174
973 430 1231 211 212 466 317 896 370 145 18 649 31 730 18 l55 -8 -57 -33
c-85 -48 -159 -127 -206 -221 -51 -102 -66 -172 -60 -287 4 -75 11 -104 36
-158 124 -264 469 -353 720 -186 101 68 169 160 198 268 l18 67 13 -65 c28
-136 110 -258 210 -312 152 -82 338 -81 507 4 174 87 246 212 246 427 0 170
-35 267 -132 364 -39 39 -81 69 -129 91 l-72 34 89 6 c164 11 526 27 530 23 2
-2 -28 -25 -67 -52 -142 -97 -209 -224 -209 -399 0 -319 264 -564 560 -519
151 24 310 134 379 262 121 228 46 518 -177 683 -30 22 -51 42 -48 45 3 3 123
14 268 24 441 31 546 47 692 100 121 44 211 102 306 198 107 107 126 137 289
444 72 137 146 272 165 300 42 66 109 133 158 158 l38 20 -36 -47 c-81 -108
-114 -204 -114 -339 0 -156 43 -270 133 -351 235 -211 654 -130 794 154 35 70
38 83 41 182 9 236 -80 400 -264 492 -46 23 -83 42 -82 44 5 4 633 26 653 23
15 -3 8 -11 -33 -38 -190 -122 -274 -344 -220 -586 44 -200 218 -328 448 -329
144 -1 274 48 370 140 148 141 185 407 84 606 -31 61 -110 147 -159 174 -19
10 -35 22 -35 27 0 9 300 3 519 -9 l104 -6 -69 -37 c-85 -45 -181 -133 -218
-201 -106 -195 -58 -472 108 -628 100 -93 196 -131 331 -132 141 0 251 46 356
150 160 158 193 384 87 600 -31 63 -153 201 -188 212 -8 3 -12 9 -8 13 11 11
448 -5 448 -17 0 -6 -21 -34 -47 -62 -116 -126 -155 -275 -118 -435 68 -286
338 -453 623 -386 259 61 395 285 337 558 -19 90 -61 181 -112 244 -24 29 -43
57 -43 62 0 12 109 18 510 31 614 20 787 37 986 101 115 36 235 93 306 146 93
68 173 193 199 310 l12 53 71 0 c39 0 121 -5 181 -10z m-14220 -131 c127 -6
500 -11 830 -11 330 0 612 -2 628 -5 l27 -5 0 -101 c-1 -285 -28 -512 -81
-684 -26 -83 -75 -126 -169 -147 -123 -28 -367 -65 -542 -82 -218 -21 -423
-15 -688 21 -159 21 -206 31 -257 54 -144 68 -213 178 -260 416 -14 69 -18
140 -18 310 0 121 3 229 8 239 7 18 16 19 150 12 78 -3 246 -11 372 -17z
m-3317 -560 c1 -42 -2 -88 -8 -103 -9 -25 -14 -27 -57 -24 l-48 3 -3 40 c-2
22 -1 68 3 103 l7 63 51 -3 52 -3 3 -76z m8155 -1306 c86 -3 157 -10 157 -15
0 -4 -6 -8 -13 -8 -24 0 -135 -78 -183 -127 -51 -53 -106 -159 -128 -243 -15
-60 -14 -61 -36 51 -24 126 -103 238 -208 299 -34 19 -62 38 -62 43 0 9 260 9
473 0z m7057 -52 c426 -44 774 -121 955 -211 119 -60 135 -105 170 -470 18
-194 35 -762 38 -1295 l2 -380 -70 -23 c-186 -61 -574 -152 -858 -202 -445
-77 -1520 -215 -1617 -208 l-45 3 -7 95 c-12 157 -30 999 -23 1090 3 47 12
258 20 470 9 212 20 449 26 528 15 216 61 373 133 450 68 74 224 139 388 162
82 11 753 4 888 -9z m-3337 -2020 c167 -9 179 -17 197 -121 15 -84 25 -495 15
-645 -6 -104 -9 -117 -29 -129 -16 -10 -229 -21 -876 -45 -830 -30 -877 -30
-1630 -23 -426 4 -781 11 -788 16 -25 15 8 324 55 516 43 177 80 267 132 321
80 82 42 78 976 95 451 7 881 15 955 17 304 6 864 5 993 -2z"/>
        <path d="M12802 18275 c-114 -25 -191 -87 -240 -193 -31 -68 -34 -164 -9 -239
53 -154 264 -263 453 -233 181 29 293 118 330 261 28 108 -1 206 -84 287 -117
114 -274 155 -450 117z"/>
        <path d="M11430 14750 c-38 -7 -75 -24 -101 -47 -15 -12 -24 -11 -75 6 -33 10
-71 17 -86 14 -31 -6 -73 -44 -94 -85 -14 -26 -18 -28 -77 -26 -34 1 -72 -4
-85 -11 -24 -13 -72 -102 -72 -133 0 -14 -10 -16 -62 -15 -99 2 -140 -35 -154
-141 -6 -50 -8 -52 -38 -52 -47 -1 -110 -34 -142 -75 -42 -55 -46 -141 -9
-209 14 -27 24 -49 23 -50 -2 -2 -24 -10 -50 -20 -100 -37 -127 -136 -63 -230
21 -30 22 -36 9 -47 -29 -24 -54 -88 -54 -137 0 -61 34 -129 81 -160 19 -13
35 -26 36 -30 1 -4 -17 -16 -40 -27 -49 -24 -94 -98 -83 -140 26 -104 169
-116 1376 -117 734 0 848 2 944 17 121 18 161 34 172 67 5 18 -2 30 -37 61
l-43 38 32 25 c37 30 40 54 11 101 l-21 34 26 34 c36 47 43 87 21 135 -16 36
-16 42 -1 86 34 100 12 162 -79 221 -27 18 -54 34 -59 36 -5 2 -1 18 9 37 12
23 16 47 12 79 -6 58 -54 105 -116 116 -44 7 -48 16 -26 55 19 34 19 104 -1
147 -23 48 -75 84 -129 91 -37 4 -45 8 -45 25 0 11 -9 40 -21 64 -24 50 -60
65 -143 56 l-53 -5 -12 45 c-21 86 -117 127 -196 84 -30 -16 -30 -15 -65 24
-19 22 -49 43 -66 48 -37 10 -95 -7 -129 -39 l-24 -22 -43 30 c-49 36 -107 51
-158 42z"/>
        <path d="M19605 12557 c-123 -32 -221 -114 -277 -232 -53 -115 -28 -197 90
-290 175 -139 392 -220 654 -246 123 -12 125 -12 210 14 101 32 163 74 198
137 21 38 25 58 24 125 0 66 -5 89 -26 130 -70 136 -305 295 -509 345 -106 26
-294 35 -364 17z"/>
        <path d="M12422 11034 c-131 -35 -255 -130 -314 -240 -105 -195 -67 -427 96
-590 83 -82 149 -118 264 -142 249 -51 500 101 552 335 63 277 -110 585 -361
642 -62 15 -174 12 -237 -5z"/>
        <path d="M18495 7530 c-246 -197 -325 -250 -373 -250 -43 0 -182 40 -458 130
-283 94 -438 135 -639 171 -169 31 -758 39 -988 14 -825 -89 -1415 -463 -1717
-1089 -128 -267 -175 -508 -151 -777 28 -301 142 -588 330 -824 119 -149 357
-353 547 -469 86 -52 568 -295 719 -362 39 -17 170 -77 292 -133 123 -55 229
-101 237 -101 8 0 16 -4 18 -8 3 -8 51 -31 238 -114 80 -36 241 -162 345 -269
196 -203 272 -399 245 -636 -25 -228 -130 -397 -321 -516 -211 -131 -464 -189
-829 -190 -236 0 -322 15 -464 81 -124 58 -267 164 -284 210 -30 79 -31 271
-2 317 86 135 113 245 73 299 -25 35 -91 66 -139 66 l-39 0 0 88 c0 97 -14
136 -68 192 -54 56 -119 80 -216 80 -144 0 -260 -43 -382 -140 -215 -172 -343
-438 -356 -742 -6 -141 1 -199 48 -352 62 -200 171 -381 332 -544 164 -166
307 -264 592 -403 99 -49 191 -95 205 -103 142 -83 441 -181 676 -222 196 -34
375 -42 743 -32 340 9 499 26 775 84 160 34 490 135 566 174 19 10 91 46 160
80 69 35 143 76 165 91 22 16 78 55 125 86 138 94 333 298 458 479 39 57 168
329 177 375 2 9 13 47 24 85 12 37 24 84 26 104 3 19 9 58 15 85 39 195 37
483 -4 683 -30 147 -154 412 -237 507 -52 60 -79 97 -117 161 -239 409 -740
789 -1392 1057 -344 141 -1012 432 -1077 469 -161 92 -195 150 -187 323 3 55
4 113 4 128 0 16 6 40 14 55 8 15 21 48 30 75 8 26 31 67 50 91 20 24 36 48
36 54 0 26 264 212 303 212 7 0 32 10 57 21 73 33 308 71 397 64 267 -22 400
-41 513 -73 54 -15 105 -47 304 -186 132 -92 245 -170 253 -173 7 -3 13 1 13
8 1 45 18 40 122 -35 58 -42 109 -76 114 -76 5 0 39 85 76 188 36 103 103 288
148 412 45 124 88 245 95 270 7 25 33 101 59 169 46 126 54 157 36 146 -10 -6
-13 3 -13 38 0 19 -12 23 -22 7 -5 -9 -122 -93 -174 -125 -9 -6 -35 -23 -58
-38 -24 -15 -45 -27 -48 -27 -5 0 60 189 183 533 49 136 84 247 78 247 -6 -1
-123 -91 -261 -200z m-1681 -149 c70 -6 137 -13 148 -17 11 -3 34 -7 51 -9 18
-2 57 -8 87 -15 30 -6 66 -13 80 -16 14 -3 39 -9 55 -14 17 -5 41 -11 55 -14
14 -2 52 -13 85 -24 33 -11 80 -25 105 -32 39 -10 190 -60 395 -131 33 -12 69
-21 79 -21 11 1 29 -4 40 -10 27 -15 60 -20 119 -19 54 1 99 18 164 61 25 17
43 25 41 18 -3 -7 -38 -107 -77 -223 -39 -115 -75 -219 -80 -230 -14 -31 -40
-102 -78 -210 -19 -55 -38 -103 -42 -107 -6 -7 -76 36 -158 98 -21 16 -46 34
-55 39 -9 6 -54 37 -100 70 -88 63 -128 88 -128 78 0 -3 -8 1 -19 11 -10 9
-28 18 -40 21 -11 2 -27 7 -34 12 -6 4 -19 9 -27 11 -16 3 -26 6 -50 14 -242
84 -762 131 -908 82 -23 -8 -60 -14 -82 -14 -21 0 -41 -4 -44 -9 -3 -5 -38
-19 -78 -32 -40 -12 -80 -28 -88 -35 -8 -7 -31 -19 -50 -28 -78 -35 -189 -119
-235 -176 -11 -14 -28 -32 -37 -42 -9 -9 -25 -32 -34 -50 -9 -18 -20 -35 -24
-38 -17 -12 -74 -192 -82 -260 -11 -101 -12 -213 0 -253 5 -17 15 -58 22 -89
7 -32 17 -58 22 -58 4 0 8 -6 8 -14 0 -21 31 -84 73 -149 37 -56 202 -227 220
-227 5 0 35 -20 66 -44 79 -61 265 -149 706 -332 72 -30 148 -63 170 -73 60
-29 107 -49 135 -57 14 -3 66 -25 115 -48 50 -23 106 -48 125 -55 64 -24 324
-155 440 -222 475 -273 804 -639 895 -994 46 -181 52 -459 14 -675 -6 -36 -13
-74 -15 -85 -5 -33 -34 -139 -43 -160 -5 -11 -19 -49 -32 -85 -12 -36 -29 -78
-38 -95 -8 -16 -15 -32 -16 -35 0 -3 -18 -36 -40 -75 -95 -170 -248 -347 -421
-485 -69 -55 -250 -167 -341 -211 -59 -28 -124 -60 -143 -69 -40 -21 -219 -84
-300 -106 -30 -8 -76 -21 -102 -29 -25 -7 -49 -11 -51 -8 -3 2 -16 -1 -28 -8
-25 -13 -146 -38 -214 -44 -56 -5 -118 -16 -129 -22 -5 -3 -81 -10 -170 -14
-88 -5 -222 -13 -296 -18 -88 -6 -201 -6 -325 1 -104 6 -202 10 -217 9 -15 -1
-85 10 -155 25 -70 14 -142 27 -160 29 -17 2 -71 17 -120 33 -48 17 -115 38
-148 48 -64 19 -268 115 -295 139 -9 8 -21 15 -27 15 -23 0 -204 140 -284 220
-177 176 -275 352 -325 580 -19 91 -17 174 7 298 25 123 95 283 153 344 19 21
32 38 29 38 -6 0 15 19 68 60 18 14 38 31 45 38 7 7 27 15 43 18 17 4 31 11
31 16 0 5 12 9 28 8 15 -1 29 -1 32 0 26 11 66 4 88 -15 21 -18 24 -27 18 -58
-4 -21 -20 -50 -35 -66 -35 -36 -37 -42 -51 -142 -13 -90 0 -239 25 -294 7
-16 23 -58 35 -92 12 -33 30 -69 39 -80 10 -10 30 -40 45 -66 32 -54 166 -196
211 -223 17 -10 51 -35 76 -56 25 -21 48 -38 51 -38 3 0 44 -22 92 -50 48 -27
92 -50 98 -50 14 0 129 -40 143 -50 6 -3 28 -8 50 -9 22 -1 60 -7 85 -13 25
-6 90 -12 145 -14 55 -2 107 -4 115 -5 47 -2 305 23 360 36 36 8 83 15 106 15
22 0 44 4 50 9 5 4 52 21 104 36 52 15 119 38 148 51 29 13 59 24 67 24 8 0
15 5 15 10 0 6 12 16 28 22 15 7 35 18 45 26 9 9 17 11 17 6 0 -5 4 -4 8 1 4
6 27 26 52 45 25 19 56 44 69 55 26 22 139 158 158 190 128 218 164 528 89
761 -25 77 -99 233 -115 244 -5 3 -17 19 -28 37 -30 50 -92 122 -170 198 -84
82 -224 201 -234 198 -3 -1 -24 13 -45 31 -36 30 -116 72 -306 160 -43 20 -80
36 -84 36 -6 0 -47 19 -209 95 -79 38 -117 55 -260 118 -365 162 -556 252
-640 302 -22 14 -60 36 -85 50 -70 39 -209 141 -261 190 -26 25 -50 45 -53 45
-3 0 -25 21 -48 47 -24 26 -60 65 -81 87 -102 110 -267 413 -267 491 0 9 -4
23 -9 33 -14 27 -32 141 -40 251 -6 98 15 341 33 370 4 6 9 19 11 28 9 48 77
220 100 254 14 21 25 41 25 44 0 12 95 171 128 215 66 87 236 255 304 300 21
14 38 28 38 33 0 4 4 7 9 7 5 0 36 17 68 39 66 43 203 115 203 105 0 -4 6 -2
13 4 16 13 209 89 257 102 281 70 302 74 405 85 28 3 57 8 65 10 9 3 67 7 129
10 63 2 116 7 119 10 8 8 364 -2 516 -14z"/>
        <path d="M3370 7604 c0 -11 -7 -71 -15 -134 -21 -181 -114 -459 -263 -790 -38
-85 -96 -220 -127 -300 -64 -162 -356 -1003 -350 -1009 5 -4 443 406 618 578
64 64 117 114 117 111 0 -7 -41 -113 -48 -125 -4 -5 -23 -59 -44 -120 -20 -60
-53 -155 -72 -210 -39 -109 -40 -115 -27 -115 19 0 84 60 544 503 22 20 42 37
45 37 3 0 19 12 34 27 15 15 34 28 41 29 6 1 30 12 52 25 21 13 44 24 50 25 5
1 57 18 115 37 58 20 130 41 160 47 77 15 339 35 348 26 9 -10 9 -26 -6 -2181
-6 -990 -16 -1856 -22 -1924 -16 -208 -44 -323 -106 -442 -63 -120 -136 -174
-600 -440 l-339 -194 465 -3 465 -2 -45 -30 c-25 -16 -48 -30 -52 -30 -5 0
-84 -49 -107 -66 -2 -2 2 -10 9 -19 11 -13 196 -15 1664 -15 1592 0 1652 1
1679 19 25 16 26 19 10 25 -20 7 -70 35 -148 81 l-50 30 165 5 164 5 -304 174
c-365 209 -466 273 -485 310 -7 15 -17 52 -20 82 -4 30 -10 63 -15 74 -5 11
-11 54 -14 95 -3 41 -8 104 -11 140 -6 94 -14 900 -20 2055 -3 556 -7 1287
-10 1625 l-6 615 63 1 c411 10 576 8 648 -9 41 -9 93 -19 115 -23 34 -5 62
-28 230 -193 252 -247 675 -645 680 -639 3 3 -11 50 -29 106 l-35 102 56 -45
c52 -43 73 -54 73 -37 0 4 -16 52 -36 107 -19 55 -52 150 -72 210 -21 61 -41
116 -45 123 -5 6 -26 60 -47 120 -51 141 -112 283 -181 426 -16 33 -29 67 -29
78 0 10 -4 18 -10 18 -5 0 -10 7 -10 16 0 8 -8 34 -19 57 -10 23 -24 66 -32
95 -7 28 -16 52 -20 52 -4 0 -15 30 -25 68 -9 37 -23 78 -30 92 -6 14 -17 50
-23 80 -6 30 -14 66 -17 80 -4 22 -10 76 -13 120 -1 12 -15 14 -75 12 l-74 -4
-16 54 c-9 29 -24 112 -32 183 -9 72 -17 131 -19 133 -1 2 -79 -2 -171 -8
-395 -25 -707 -31 -1724 -37 -1230 -6 -1810 4 -2417 43 -97 6 -103 6 -103 -12z
m360 -234 c0 -3 51 -5 112 -5 62 -1 235 -5 383 -9 149 -5 335 -10 415 -10 776
-8 1007 -8 1480 -2 300 4 667 10 815 14 149 3 321 6 383 7 61 0 112 2 112 5 0
3 36 5 80 5 l80 0 11 -55 c10 -52 71 -253 89 -295 5 -11 22 -58 39 -105 38
-112 63 -174 105 -262 55 -119 78 -170 97 -223 23 -66 62 -168 88 -232 11 -29
16 -55 11 -58 -5 -3 -11 4 -15 15 -3 11 -17 26 -29 33 -12 6 -45 37 -72 67
-27 30 -69 73 -93 95 -24 22 -58 55 -77 73 -19 19 -34 31 -34 28 0 -4 -18 5
-39 18 -21 14 -42 22 -45 19 -3 -4 -6 -1 -6 5 0 7 -7 12 -15 12 -8 0 -23 4
-33 9 -9 5 -51 19 -92 32 -41 13 -79 27 -85 31 -5 4 -23 8 -40 8 -17 0 -62 9
-101 20 -39 10 -101 19 -140 19 -38 0 -123 3 -190 6 -72 4 -136 3 -160 -3 -21
-6 -114 -12 -206 -14 l-168 -3 0 -65 c-2 -176 1 -667 5 -930 2 -162 7 -887 10
-1610 3 -723 8 -1387 10 -1475 3 -88 5 -214 6 -280 1 -166 37 -423 68 -490 5
-11 19 -46 30 -78 37 -103 78 -171 138 -228 59 -56 168 -135 213 -155 19 -8
-26 -12 -200 -16 -258 -7 -2369 -2 -2376 5 -3 2 27 23 65 46 38 22 97 67 130
99 34 32 62 57 64 56 6 -6 96 183 120 251 25 73 53 208 63 310 3 33 7 76 9 95
8 70 16 839 20 1805 2 545 7 1364 11 1821 l7 832 -84 6 c-354 27 -687 25 -794
-5 -38 -10 -83 -19 -100 -19 -17 0 -35 -4 -40 -8 -6 -4 -44 -18 -85 -31 -41
-13 -83 -27 -92 -32 -10 -5 -25 -9 -33 -9 -8 0 -15 -5 -15 -12 0 -6 -3 -9 -6
-5 -3 3 -24 -5 -45 -19 -21 -13 -39 -22 -39 -18 0 3 -15 -9 -34 -28 -19 -18
-53 -51 -77 -73 -24 -22 -66 -65 -93 -95 -27 -30 -60 -61 -72 -67 -12 -7 -26
-22 -29 -33 -4 -11 -10 -18 -15 -15 -5 3 0 29 11 58 26 64 65 166 88 232 19
53 42 104 97 223 42 88 67 150 105 262 17 47 34 94 39 105 18 42 79 243 89
295 l11 55 80 0 c44 0 80 -2 80 -5z"/>
        <path d="M9616 7613 l-879 -3 189 -193 c105 -105 216 -224 247 -264 191 -241
327 -513 577 -1153 239 -610 449 -1162 545 -1435 43 -121 155 -431 248 -690
l169 -470 -6 -700 c-3 -385 -10 -792 -16 -905 -14 -260 -16 -264 -237 -583
-57 -82 -103 -150 -103 -153 0 -2 133 -4 296 -4 l296 0 -25 -33 c-26 -34 -77
-121 -77 -131 0 -8 1827 -2 1835 6 7 7 -20 62 -42 85 -6 7 -17 29 -24 48 -7
19 -17 35 -21 35 -4 0 -8 9 -8 20 0 11 -3 20 -7 20 -10 0 -42 77 -49 115 -3
16 -9 35 -14 44 -4 9 -11 37 -15 61 -4 25 -9 48 -11 52 -5 7 -6 18 -24 183
-15 136 -17 432 -7 1045 l9 515 118 315 c66 173 135 362 154 420 18 58 111
305 205 550 94 245 173 456 176 469 4 25 126 345 205 541 28 69 53 137 55 151
3 14 32 92 66 175 33 82 64 163 68 179 4 17 19 57 33 90 14 33 31 76 38 95 34
95 46 123 107 249 37 75 82 159 100 188 18 29 33 55 33 59 0 10 69 112 80 119
6 4 8 11 5 16 -4 5 -2 9 4 9 5 0 13 9 16 21 14 44 255 266 255 235 0 -4 18 5
40 19 22 14 40 22 40 18 0 -5 4 -3 8 2 7 10 101 59 114 60 4 0 31 12 60 27 29
14 70 33 91 42 41 18 49 36 15 36 -29 1 -79 28 -58 32 8 1 -91 5 -220 8 l-235
5 250 107 c138 58 324 137 414 175 l164 68 -807 3 c-443 1 -1168 1 -1610 0
l-805 -3 279 -159 c153 -87 293 -174 311 -192 33 -34 34 -37 37 -138 11 -281
-108 -704 -429 -1525 l-103 -264 -34 104 c-19 57 -38 106 -42 109 -9 6 -80
224 -150 460 -29 96 -56 180 -60 185 -12 15 -56 167 -86 295 -14 63 -30 120
-35 125 -4 6 -13 42 -19 80 -6 39 -15 84 -20 100 -5 17 -14 70 -20 119 l-11
89 33 35 c58 62 122 124 156 149 41 32 40 41 -3 49 -23 4 -35 12 -35 23 0 14
-18 16 -165 13 -158 -3 -165 -2 -154 15 12 19 47 48 268 221 l143 112 -475 0
c-261 0 -487 1 -503 3 -16 1 -425 1 -908 0z m1294 -229 c0 -1 -10 -14 -23 -28
-42 -45 -52 -116 -33 -241 18 -116 51 -275 58 -275 4 0 8 -9 8 -21 0 -27 89
-361 100 -374 4 -5 16 -37 25 -70 31 -109 175 -560 183 -575 5 -8 50 -139 101
-290 51 -151 98 -288 106 -305 8 -16 32 -84 55 -150 22 -66 50 -145 61 -175
11 -30 43 -120 72 -200 30 -85 53 -137 55 -125 3 11 26 73 53 139 27 65 49
124 49 130 0 7 16 52 36 102 88 214 335 851 340 873 3 13 9 31 13 40 14 25
103 264 105 281 1 8 26 87 54 175 47 145 118 403 128 465 2 14 9 47 15 75 5
27 13 92 16 145 16 224 0 319 -65 375 l-25 22 74 6 c81 7 1350 0 1357 -8 3 -2
-18 -15 -45 -28 -28 -13 -64 -36 -80 -53 -17 -16 -55 -51 -86 -78 -32 -27 -57
-55 -57 -63 0 -7 -4 -13 -10 -13 -5 0 -10 -7 -10 -15 0 -8 -3 -15 -7 -15 -5 0
-21 -23 -38 -50 -16 -28 -33 -50 -37 -50 -4 0 -8 -6 -8 -14 0 -7 -7 -19 -15
-26 -9 -7 -14 -15 -11 -17 2 -2 -21 -45 -51 -96 -31 -51 -56 -96 -58 -102 -1
-5 -29 -66 -63 -135 -34 -68 -59 -126 -57 -129 3 -2 -2 -15 -10 -27 -8 -13
-17 -31 -18 -41 -2 -10 -9 -31 -16 -48 -6 -16 -20 -52 -31 -80 -10 -27 -48
-125 -84 -216 -37 -92 -66 -170 -66 -174 0 -4 -42 -118 -94 -254 -103 -269
-145 -382 -169 -451 -9 -25 -95 -254 -192 -510 -98 -256 -183 -485 -190 -510
-7 -25 -25 -76 -40 -115 -15 -38 -76 -202 -135 -363 l-109 -292 -5 -353 c-3
-193 -8 -503 -12 -687 -6 -333 6 -573 37 -740 16 -87 53 -220 61 -220 5 0 8
-6 8 -13 0 -7 11 -35 24 -63 13 -27 22 -51 21 -53 -6 -6 -1396 -3 -1402 3 -4
3 8 29 25 57 18 27 32 54 32 58 0 5 7 14 15 21 8 7 12 16 9 21 -3 5 -1 9 4 9
8 0 13 11 27 60 13 46 21 138 30 315 6 118 15 707 19 1165 l4 435 -35 110
c-20 61 -39 112 -43 115 -4 3 -15 30 -25 60 -10 30 -68 195 -130 365 -61 171
-122 344 -135 385 -13 41 -26 80 -31 85 -4 6 -16 40 -27 77 -12 36 -25 75 -31
85 -5 10 -33 83 -61 163 -28 80 -57 159 -65 175 -8 17 -53 136 -100 265 -47
129 -90 242 -95 251 -11 21 -190 488 -190 497 0 4 -7 21 -16 37 -9 17 -26 57
-39 90 -68 177 -139 355 -160 400 -82 176 -105 228 -105 236 0 5 -4 9 -8 9 -4
0 -20 26 -35 58 -74 153 -194 330 -304 448 -18 19 -33 36 -33 39 0 2 24 5 53
7 74 4 1587 7 1587 2z"/>
    </g>
</svg>
